<svg xmlns="http://www.w3.org/2000/svg" viewBox="0 0 512 512">
  <defs>
    <linearGradient id="grad" x1="0%" y1="0%" x2="100%" y2="100%">
      <stop offset="0%" style="stop-color:#667eea;stop-opacity:1" />
      <stop offset="100%" style="stop-color:#764ba2;stop-opacity:1" />
    </linearGradient>
  </defs>
  <rect width="512" height="512" rx="100" fill="url(#grad)"/>
  <path d="M128 128c0-35.3 28.7-64 64-64h128c35.3 0 64 28.7 64 64v128c0 35.3-28.7 64-64 64H192c-35.3 0-64-28.7-64-64V128z" fill="white"/>
  <path d="M160 160c0-17.7 14.3-32 32-32h128c17.7 0 32 14.3 32 32v96c0 17.7-14.3 32-32 32H192c-17.7 0-32-14.3-32-32V160z" fill="url(#grad)"/>
  <circle cx="200" cy="200" r="16" fill="white"/>
  <circle cx="256" cy="200" r="16" fill="white"/>
  <circle cx="312" cy="200" r="16" fill="white"/>
</svg>
